<?xml version="1.0" encoding="UTF-8"?>
<svg version="1.1" xmlns="http://www.w3.org/2000/svg" width="512" height="512">
<path d="M0 0 C0.89115509 -0.00974854 1.78231018 -0.01949707 2.70046997 -0.02954102 C22.63293108 -0.20264286 41.86559565 0.06369901 61.4453125 4.23828125 C62.77079102 4.51115967 62.77079102 4.51115967 64.12304688 4.78955078 C105.34784078 13.49342708 143.65278781 33.55407357 174.4453125 62.23828125 C175.83675916 63.45166344 177.23239889 64.66025928 178.6328125 65.86328125 C185.12642006 71.55168147 190.72060083 77.62806502 196.12890625 84.36328125 C197.62026628 86.21427785 199.13192996 88.04918974 200.66796875 89.86328125 C211.37655764 102.55494215 219.73850793 116.5738543 227.4453125 131.23828125 C227.79303711 131.88893555 228.14076172 132.53958984 228.49902344 133.20996094 C239.66788692 154.35997462 246.75126165 178.69014258 250.4453125 202.23828125 C250.62787598 203.39384521 250.81043945 204.54940918 250.99853516 205.73999023 C252.59886637 217.00999862 252.84447883 228.17905615 252.8203125 239.55078125 C252.81949677 240.99969254 252.81949677 240.99969254 252.81866455 242.47787476 C252.75654087 266.55129834 249.41615617 289.15610162 242.4453125 312.23828125 C242.19442871 313.07343262 241.94354492 313.90858398 241.68505859 314.76904297 C231.64027637 347.38390177 213.65619439 377.32137709 190.4453125 402.23828125 C189.23193031 403.62972791 188.02333447 405.02536764 186.8203125 406.42578125 C181.13191228 412.91938881 175.05552873 418.51356958 168.3203125 423.921875 C166.4693159 425.41323503 164.63440401 426.92489871 162.8203125 428.4609375 C150.1286516 439.16952639 136.10973945 447.53147668 121.4453125 455.23828125 C120.7946582 455.58600586 120.14400391 455.93373047 119.47363281 456.29199219 C98.32361913 467.46085567 73.99345117 474.5442304 50.4453125 478.23828125 C49.28974854 478.42084473 48.13418457 478.6034082 46.94360352 478.79150391 C35.67359513 480.39183512 24.5045376 480.63744758 13.1328125 480.61328125 C12.16687164 480.61273743 11.20093079 480.6121936 10.20571899 480.6116333 C-5.69146444 480.57060916 -20.9742443 479.64585488 -36.5546875 476.23828125 C-37.54082031 476.02397461 -38.52695313 475.80966797 -39.54296875 475.58886719 C-80.68601851 466.32763679 -118.66455293 447.01341561 -149.5546875 418.23828125 C-150.94613416 417.02489906 -152.34177389 415.81630322 -153.7421875 414.61328125 C-160.2414509 408.91992651 -165.84238567 402.83961232 -171.25 396.09375 C-172.69580225 394.30242552 -174.16644909 392.53057919 -175.671875 390.7890625 C-207.31744649 353.8692291 -227.34870952 301.35876015 -227.79296875 252.68359375 C-227.8027626 251.79257462 -227.81255646 250.90155548 -227.82264709 249.98353577 C-228.06977464 221.65429212 -225.7888597 195.50365266 -217.5546875 168.23828125 C-217.17836182 166.9855542 -217.17836182 166.9855542 -216.79443359 165.70751953 C-203.42490392 122.29738749 -175.36083111 81.26686088 -139.5546875 53.23828125 C-138.56984375 52.44808594 -137.585 51.65789062 -136.5703125 50.84375 C-98.53859031 20.59941859 -48.96468094 0.44659656 0 0 Z " fill="#393C54" transform="translate(243.5546875,15.76171875)"/>
<path d="M0 0 C0.89115509 -0.00974854 1.78231018 -0.01949707 2.70046997 -0.02954102 C22.63293108 -0.20264286 41.86559565 0.06369901 61.4453125 4.23828125 C62.77079102 4.51115967 62.77079102 4.51115967 64.12304688 4.78955078 C105.34784078 13.49342708 143.65278781 33.55407357 174.4453125 62.23828125 C175.83675916 63.45166344 177.23239889 64.66025928 178.6328125 65.86328125 C185.12642006 71.55168147 190.72060083 77.62806502 196.12890625 84.36328125 C197.62026628 86.21427785 199.13192996 88.04918974 200.66796875 89.86328125 C211.37655764 102.55494215 219.73850793 116.5738543 227.4453125 131.23828125 C227.79303711 131.88893555 228.14076172 132.53958984 228.49902344 133.20996094 C239.66788692 154.35997462 246.75126165 178.69014258 250.4453125 202.23828125 C250.62787598 203.39384521 250.81043945 204.54940918 250.99853516 205.73999023 C252.59886637 217.00999862 252.84447883 228.17905615 252.8203125 239.55078125 C252.81949677 240.99969254 252.81949677 240.99969254 252.81866455 242.47787476 C252.75654087 266.55129834 249.41615617 289.15610162 242.4453125 312.23828125 C242.19442871 313.07343262 241.94354492 313.90858398 241.68505859 314.76904297 C231.64191081 347.37859484 213.66034619 377.33002054 190.4453125 402.23828125 C188.6032963 404.33164469 186.7764686 406.43725765 184.953125 408.546875 C182.04520089 411.80887277 182.04520089 411.80887277 180.4453125 413.23828125 C179.7853125 413.23828125 179.1253125 413.23828125 178.4453125 413.23828125 C178.36228882 411.76403687 178.36228882 411.76403687 178.27758789 410.26000977 C178.06942861 406.57529726 177.85804958 402.89077502 177.64575195 399.20629883 C177.55471913 397.61878301 177.46453206 396.03121843 177.37524414 394.44360352 C176.76756132 383.44403734 176.76756132 383.44403734 175.67553711 372.48461914 C175.25546759 368.3859345 175.10814806 364.2694901 174.90112305 360.15551758 C173.31184899 329.42389678 169.81220276 298.8045405 165.8203125 268.30078125 C165.72221283 267.54656891 165.62411316 266.79235657 165.52304077 266.01528931 C164.12679095 255.36430942 162.36492561 244.80637855 160.4453125 234.23828125 C160.1474172 232.5147227 159.85141769 230.79083364 159.55859375 229.06640625 C143.79655258 135.77329128 143.79655258 135.77329128 87.3203125 63.67578125 C64.85358562 48.2276022 39.02211138 40.81440427 11.8828125 40.98828125 C10.67173828 40.98054688 9.46066406 40.9728125 8.21289062 40.96484375 C-23.84269761 41.03352203 -54.39512764 53.07400826 -77.5546875 75.23828125 C-78.30363281 75.91246094 -79.05257812 76.58664063 -79.82421875 77.28125 C-102.23818111 98.20356512 -109.55138811 130.31444198 -116.7109375 158.90869141 C-117.47807535 161.93595586 -118.27457918 164.95309593 -119.0859375 167.96875 C-125.46744814 191.99958731 -129.68402962 216.70973612 -133.13967896 241.31900024 C-133.88519716 246.62411283 -134.65094824 251.92311085 -135.49902344 257.21289062 C-138.01875061 272.93018882 -139.95473259 288.659305 -141.6171875 304.48828125 C-141.8777292 306.93704173 -142.13855597 309.38577189 -142.3996582 311.83447266 C-142.90387043 316.57384236 -143.40412641 321.31360507 -143.90136719 326.05371094 C-144.41644363 330.95331319 -144.95160142 335.85011995 -145.5 340.74609375 C-147.47344313 358.75980156 -148.53520581 376.81653532 -149.5534668 394.90576172 C-149.61305069 395.94698685 -149.67263458 396.98821198 -149.73402405 398.06098938 C-149.84609499 400.02938492 -149.95509369 401.9979586 -150.06053162 403.96672058 C-150.29835252 408.13968568 -150.55094434 412.16304137 -151.5546875 416.23828125 C-195.75850356 379.60406115 -221.25007965 320.73752099 -227.34204102 264.65434265 C-227.69309613 260.66570062 -227.75644026 256.6858298 -227.79296875 252.68359375 C-227.8027626 251.79257462 -227.81255646 250.90155548 -227.82264709 249.98353577 C-228.06977464 221.65429212 -225.7888597 195.50365266 -217.5546875 168.23828125 C-217.17836182 166.9855542 -217.17836182 166.9855542 -216.79443359 165.70751953 C-203.42490392 122.29738749 -175.36083111 81.26686088 -139.5546875 53.23828125 C-138.56984375 52.44808594 -137.585 51.65789062 -136.5703125 50.84375 C-98.53859031 20.59941859 -48.96468094 0.44659656 0 0 Z " fill="#00ACFD" transform="translate(243.5546875,15.76171875)"/>
<path d="M0 0 C1.32837891 0.71736328 1.32837891 0.71736328 2.68359375 1.44921875 C24.94137274 14.48817296 36.35051881 37.72325573 42.99926758 61.77270508 C51.507242 94.61085953 50.00014082 130.84132702 44 164 C43.80744629 165.08039551 43.61489258 166.16079102 43.41650391 167.27392578 C40.88308516 181.13894348 37.44861378 194.62976932 33 208 C32.67515625 208.98645508 32.3503125 209.97291016 32.015625 210.98925781 C26.0212862 228.98904942 19.37939497 248.03109146 6 262 C5.26523437 262.77472656 4.53046875 263.54945313 3.7734375 264.34765625 C-10.96324921 278.72432619 -28.76791025 281.51725748 -48.56005859 281.34960938 C-65.84608808 280.9247078 -81.06116055 276.68061449 -93.76171875 264.375 C-106.09891274 251.28422522 -112.80646531 236.6340646 -119 220 C-119.39985107 218.94055176 -119.79970215 217.88110352 -120.21166992 216.78955078 C-123.38291236 208.19098981 -125.88030939 199.5213952 -128.0625 190.625 C-128.23364319 189.93434448 -128.40478638 189.24368896 -128.58111572 188.53210449 C-131.72742596 175.7822119 -134.21662009 163.01575776 -136 150 C-136.11569336 149.23091309 -136.23138672 148.46182617 -136.35058594 147.66943359 C-142.3752534 107.02527493 -140.40956631 56.99035707 -115.625 22.5625 C-101.23608127 4.61318329 -82.45713848 -7.10956109 -59.37231445 -9.79492188 C-38.6147083 -11.58934291 -18.52486013 -10.18720518 0 0 Z " fill="#FEFEFE" transform="translate(301,103)"/>
<path d="M0 0 C0.99 0.495 0.99 0.495 2 1 C1.39696045 1.56376343 1.39696045 1.56376343 0.78173828 2.13891602 C-25.39500352 26.84064883 -34.5985392 56.49209756 -43.15625 90.67041016 C-43.92338785 93.69767461 -44.71989168 96.71481468 -45.53125 99.73046875 C-51.91294388 123.76199609 -56.13013217 148.47311537 -59.58526611 173.08319092 C-60.32873814 178.37440616 -61.09223794 183.6594423 -61.93994141 188.93505859 C-64.52595927 205.03722561 -66.4761579 221.15878749 -68.1875 237.375 C-68.44936211 239.80474227 -68.71173057 242.23443002 -68.97460938 244.6640625 C-69.22702001 247.01297171 -69.47898967 249.36192837 -69.73046875 251.7109375 C-69.84400192 252.77049652 -69.9575351 253.83005554 -70.07450867 254.92172241 C-70.72741293 261.11518388 -71.25708379 267.29685332 -71.63056946 273.5140686 C-72 276 -72 276 -74 279 C-83.94059203 262.79206184 -92.69856657 246.33677618 -98 228 C-98.21108398 227.29472168 -98.42216797 226.58944336 -98.63964844 225.86279297 C-109.96803194 187.67732404 -108.20003245 147.72285396 -96 110 C-95.69352539 109.0402124 -95.69352539 109.0402124 -95.38085938 108.06103516 C-84.08092744 73.43481517 -60.74713594 42.13947193 -32 20 C-31.4848584 19.60312988 -30.9697168 19.20625977 -30.43896484 18.79736328 C-23.36013104 13.40101009 -16.00752447 8.67876539 -8.25 4.3125 C-7.46294678 3.86592041 -6.67589355 3.41934082 -5.86499023 2.95922852 C-4.76392944 2.35485962 -4.76392944 2.35485962 -3.640625 1.73828125 C-2.98610352 1.37774658 -2.33158203 1.01721191 -1.65722656 0.64575195 C-1.1103418 0.43265381 -0.56345703 0.21955566 0 0 Z " fill="#1098E7" transform="translate(170,84)"/>
<path d="M0 0 C17.73798575 12.82114058 24.98526035 42.24536894 28.48120117 62.58398438 C32.66687504 90.92097052 31.08094135 120.92111358 26 149 C25.71116943 150.62059326 25.71116943 150.62059326 25.41650391 152.27392578 C22.88308516 166.13894348 19.44861378 179.62976932 15 193 C14.67515625 193.98645508 14.3503125 194.97291016 14.015625 195.98925781 C8.0212862 213.98904942 1.37939497 233.03109146 -12 247 C-12.73476563 247.77472656 -13.46953125 248.54945313 -14.2265625 249.34765625 C-28.99576362 263.75604627 -46.72062018 266.43182333 -66.52929688 266.36499023 C-74.62223431 266.19762959 -82.17717144 265.07620095 -90 263 C-90 262.67 -90 262.34 -90 262 C-88.741875 261.85304688 -87.48375 261.70609375 -86.1875 261.5546875 C-64.44416136 258.79620424 -43.89278967 251.70950302 -29.625 234.0625 C-23.34438132 225.405431 -13.36490059 210.93874268 -14.25 199.875 C-14.64277597 197.84565749 -15.04144056 195.81683192 -15.49755859 193.80078125 C-17.46983551 183.99982857 -17.37220243 174.15367581 -17.37060547 164.19824219 C-17.37502033 161.11078368 -17.41155791 158.02471064 -17.44921875 154.9375 C-17.45508082 152.96094233 -17.45905429 150.98437796 -17.4609375 149.0078125 C-17.47530853 148.0921048 -17.48967957 147.17639709 -17.50448608 146.23294067 C-17.46462921 140.65108722 -16.75403322 137.41299966 -13 133 C-9.29277083 130.07324013 -6.67259219 129.6740052 -2 130 C-1.67 126.7 -1.34 123.4 -1 120 C-3.041875 119.814375 -3.041875 119.814375 -5.125 119.625 C-9.97896684 119.082273 -14.43485177 118.56514823 -18 115 C-17.44444444 110.44444444 -17.44444444 110.44444444 -16 109 C-14.43385158 109.06488751 -12.87048984 109.2026663 -11.3125 109.375 C-10.41402344 109.47425781 -9.51554687 109.57351562 -8.58984375 109.67578125 C-5.71024309 110.03627424 -2.8541107 110.47424276 0 111 C0 109.02 0 107.04 0 105 C-0.72445312 105.04640625 -1.44890625 105.0928125 -2.1953125 105.140625 C-8.32855863 105.36959952 -12.27231273 105.37311072 -17 101 C-19.11630344 98.31934897 -19.90808173 96.46980452 -20.5625 93.125 C-19.75778347 88.65435262 -17.2574991 86.06339941 -14 83 C-10.99686252 81.49843126 -8.20932478 81.90718796 -4.875 81.9375 C-3.59367187 81.94652344 -2.31234375 81.95554687 -0.9921875 81.96484375 C-0.00476563 81.97644531 0.98265625 81.98804688 2 82 C2 79.36 2 76.72 2 74 C0.515 74.495 0.515 74.495 -1 75 C-7.73546047 75.78580372 -7.73546047 75.78580372 -11.04296875 73.73046875 C-13.4885573 71.65802155 -15.5566694 69.8866612 -17 67 C-18.1213039 52.49440494 -18.97342707 34.18087104 -10 22 C-7.16905053 22.35003063 -6.19401662 22.76781618 -4.33203125 24.99609375 C-3.83058594 25.80175781 -3.32914062 26.60742188 -2.8125 27.4375 C-2.30332031 28.24058594 -1.79414063 29.04367188 -1.26953125 29.87109375 C0 32 0 32 1 34 C1.11858127 22.61619816 0.86612792 11.35246238 0 0 Z " fill="#D5D6DB" transform="translate(319,118)"/>
<path d="M0 0 C38.36563664 11.57532428 71.90737219 48.25003644 90.4519043 82.25610352 C114.61877533 127.43306303 121.14097121 180.05291675 106.71875 229.58203125 C101.77253186 245.57461328 95.08777396 261.88456402 86 276 C85.34 276.33 84.68 276.66 84 277 C82.77634894 267.54865862 81.65704528 258.08828242 80.59765625 248.6171875 C80.4733725 247.5074054 80.34908875 246.39762329 80.22103882 245.25421143 C79.70553485 240.64460821 79.19111215 236.03488952 78.67993164 231.42480469 C76.44171587 211.26509057 74.10571055 191.14367797 70.40039062 171.19335938 C69.9850188 168.91793223 69.59222016 166.63943502 69.203125 164.359375 C54.51760123 76.25751802 54.51760123 76.25751802 5.05859375 4.76953125 C3.28523441 3.24518252 1.62627092 1.67822846 0 0 Z " fill="#1098E7" transform="translate(334,81)"/>
<path d="M0 0 C3.55126764 2.1912077 5.55661161 4.10758704 7 8 C7.18127722 10.83284367 7.25637037 13.56348637 7.23046875 16.39453125 C7.22978142 17.63114754 7.22978142 17.63114754 7.2290802 18.89274597 C7.22606033 20.64197219 7.21818193 22.39119578 7.20581055 24.14038086 C7.18782609 26.7649129 7.1852993 29.38908529 7.18554688 32.01367188 C7.13098921 59.57836237 7.13098921 59.57836237 4 68 C1.63622502 67.62519424 0.33563559 67.36569251 -1.30859375 65.57421875 C-4.86353175 59.63292098 -7.49018361 53.44434704 -10 47 C-10.33902344 46.18273437 -10.67804688 45.36546875 -11.02734375 44.5234375 C-13.5081529 38.24669146 -15.15296557 31.79547267 -16.75 25.25 C-16.97300781 24.35031494 -17.19601563 23.45062988 -17.42578125 22.52368164 C-20.25812996 10.51625992 -20.25812996 10.51625992 -17.375 4.75 C-12.33084882 -1.0905961 -7.21896753 -1.97123098 0 0 Z " fill="#A8AFCE" transform="translate(203,249)"/>
<path d="M0 0 C3.33173666 1.31881243 4.58693038 2.48722392 6.8125 5.25 C9.54772142 11.58419696 7.50224665 18.32291489 5.9375 24.75 C5.71634521 25.66378418 5.49519043 26.57756836 5.26733398 27.51904297 C-2.53648563 58.53648563 -2.53648563 58.53648563 -12 68 C-12.99 68 -13.98 68 -15 68 C-18.1651103 59.77071321 -18.16823437 51.20317262 -18.23828125 42.48828125 C-18.246353 41.5164238 -18.25442474 40.54456635 -18.26274109 39.54325867 C-18.27648091 37.50371027 -18.28724752 35.46413985 -18.29516602 33.42456055 C-18.30675231 31.3444136 -18.32730719 29.26429787 -18.35668945 27.18432617 C-18.39931292 24.16044157 -18.41551925 21.13742866 -18.42578125 18.11328125 C-18.44328934 17.18816238 -18.46079742 16.26304352 -18.47883606 15.30989075 C-18.46002243 9.70592297 -17.81673676 6.40319727 -14 2 C-9.53471871 -0.9768542 -5.23577218 -0.49133346 0 0 Z " fill="#A8AECE" transform="translate(320,249)"/>
<path d="M0 0 C2.60202895 2.76933369 3.87197209 4.23183256 4.5 8 C3.84164567 11.950126 3.02359959 13.33635274 0 16 C-7.89224629 19.54966568 -16.06422137 19.45332515 -24.5625 19.375 C-25.82513672 19.38660156 -27.08777344 19.39820313 -28.38867188 19.41015625 C-36.46828759 19.38484153 -44.31377235 19.32659569 -50.5625 13.6875 C-52.31858359 10.4043872 -52.61218369 8.67310211 -52 5 C-49.26536179 0.29642228 -46.07199597 -1.28067933 -41 -3 C-28.30815027 -5.28869421 -11.67232963 -6.37502823 0 0 Z " fill="#3C3F57" transform="translate(280,334)"/>
<path d="M0 0 C2.50184982 0.37044557 3.7283591 0.71342596 5.4921875 2.57421875 C12.97618839 14.01163254 20.42780146 28.95995234 19 43 C17.57897428 46.58639824 16.10953858 49.63675068 13 52 C9.2796699 53.51569004 4.92455338 53.79512327 1 53 C-2.32398399 50.93046974 -5.23387925 48.5322415 -7 45 C-8.1213039 30.49440494 -8.97342707 12.18087104 0 0 Z " fill="#A8AFCE" transform="translate(309,140)"/>
<path d="M0 0 C2.85607275 1.42803638 3.54164954 3.17564845 5 6 C7.72911796 15.14198363 8.36054522 24.56986902 8.5625 34.0625 C8.62087036 35.52502197 8.62087036 35.52502197 8.68041992 37.01708984 C8.70382482 43.0472308 7.7940354 46.36495761 3.58569336 50.75561523 C0.03791617 53.53976001 -3.68629201 53.29245478 -8 53 C-12.15757553 51.40093249 -14.7122114 49.85311765 -17 46 C-21.1792721 33.46218369 -13.36671345 19.20534616 -7.85546875 8.140625 C-3.64365254 0 -3.64365254 0 0 0 Z " fill="#A8AFCE" transform="translate(202,140)"/>
<path d="M0 0 C1.08539063 -0.02900391 2.17078125 -0.05800781 3.2890625 -0.08789062 C9.59253678 -0.13797936 13.48935878 0.01670253 18.25 4.3125 C20.84107284 7.72800511 20.75288306 11.14575464 20.25 15.3125 C18.46523759 18.28489241 16.39791945 20.73854027 13.25 22.3125 C8.98515989 22.61035272 4.7115133 22.59058765 0.4375 22.625 C-0.75166016 22.65400391 -1.94082031 22.68300781 -3.16601562 22.71289062 C-4.88788086 22.72545898 -4.88788086 22.72545898 -6.64453125 22.73828125 C-7.69487549 22.75286377 -8.74521973 22.76744629 -9.82739258 22.7824707 C-13.46962788 22.19678004 -15.10442315 20.8259888 -17.75 18.3125 C-20.04399862 15.03535911 -20.36717397 12.24698403 -19.75 8.3125 C-14.18783789 -0.01368132 -9.54103049 0.08379125 0 0 Z " fill="#3D4057" transform="translate(318.75,199.6875)"/>
<path d="M0 0 C1.55557617 -0.02416992 1.55557617 -0.02416992 3.14257812 -0.04882812 C12.57991451 -0.05488936 12.57991451 -0.05488936 16.5625 3.3125 C19.22219807 5.97219807 20.42824038 7.52372473 21.0625 11.25 C20.43141522 15.11539428 18.98615412 17.26562053 16.5625 20.3125 C11.72439004 23.53790664 6.43859634 22.72222064 0.75 22.75 C-1.0144043 22.79930664 -1.0144043 22.79930664 -2.81445312 22.84960938 C-12.5094586 22.90989488 -12.5094586 22.90989488 -16.19140625 20.0625 C-18.98356231 16.6439298 -19.46896199 14.81026926 -19.67578125 10.53125 C-19.29196191 6.95732569 -17.80509726 4.93605372 -15.4375 2.3125 C-10.66212035 -0.68775532 -5.45812651 -0.01689822 0 0 Z " fill="#3D4057" transform="translate(192.4375,199.6875)"/>
<path d="M0 0 C4.83766699 0.41465717 6.85646376 2.4198615 10 6 C12.82929874 11.65859748 10.3577656 18.91636051 8.9375 24.75 C8.71634521 25.66378418 8.49519043 26.57756836 8.26733398 27.51904297 C-0.28855682 61.52570455 -0.28855682 61.52570455 -10 68 C-9.731875 66.72125 -9.46375 65.4425 -9.1875 64.125 C-8.78665062 62.08431223 -8.39148028 60.04250581 -8 58 C-7.78214844 56.8759375 -7.56429688 55.751875 -7.33984375 54.59375 C-5.00761774 41.89553407 -3.7131484 29.07197214 -2.35791016 16.24072266 C-2.27522888 15.46547241 -2.19254761 14.69022217 -2.10736084 13.89147949 C-1.95109989 12.42195153 -1.79735988 10.95215257 -1.64654541 9.48205566 C-1.30305418 6.24909303 -0.91491351 3.12553695 0 0 Z " fill="#9298B7" transform="translate(317,249)"/>
<path d="M0 0 C11.22 0 22.44 0 34 0 C34 1.32 34 2.64 34 4 C28.99715516 9.00284484 23.4777978 10.28759497 16.5625 10.3125 C9.87118704 10.19818372 5.65065879 9.37879635 0.5625 4.8125 C0.046875 4.214375 -0.46875 3.61625 -1 3 C-0.67 2.01 -0.34 1.02 0 0 Z " fill="#A9B0CF" transform="translate(239,360)"/>
<path d="M0 0 C2 2 2 2 2.0625 4.4375 C1 7 1 7 -2.3125 8.75 C-7.39989762 10.47454157 -11.46386229 11.18017887 -16.875 11.25 C-18.66550781 11.28867188 -18.66550781 11.28867188 -20.4921875 11.328125 C-24.3049138 10.971478 -26.71256738 9.91012905 -30 8 C-30.125 5.625 -30.125 5.625 -30 3 C-28 1 -28 1 -24.26171875 0.83984375 C-22.73679979 0.86248447 -21.21200779 0.89547096 -19.6875 0.9375 C-13.04073868 1.08971591 -6.55456325 -0.43697088 0 0 Z " fill="#3F4259" transform="translate(209,227)"/>
<path d="M0 0 C1.33784476 0.09600275 2.67109657 0.25567369 4 0.4375 C7.47097747 0.84555395 10.85018425 1.02465783 14.33984375 0.96484375 C15.47583008 0.94562866 15.47583008 0.94562866 16.63476562 0.92602539 C18.15593281 0.89231844 19.67688095 0.84616286 21.19726562 0.78686523 C26.52602295 0.67574826 26.52602295 0.67574826 29.015625 2.37890625 C30 4 30 4 29.8125 6.0625 C29 8 29 8 27 10 C19.03042837 12.1572806 8.74117 12.07345815 1 9 C-0.76171875 7.58984375 -0.76171875 7.58984375 -2 6 C-1.57894737 1.57894737 -1.57894737 1.57894737 0 0 Z " fill="#3E4158" transform="translate(303,227)"/>
<path d="M0 0 C2.76101476 2.76101476 3.48852917 5.9843289 4.625 9.625 C4.85445313 10.31207031 5.08390625 10.99914062 5.3203125 11.70703125 C7.23558631 17.78346541 8.02009388 23.24574653 5.75 29.375 C4 32 4 32 0 34 C0 22.78 0 11.56 0 0 Z " fill="#959BB9" transform="translate(321,157)"/>
</svg>
